<svg width="59" height="43" viewBox="0 0 59 43" fill="none" xmlns="http://www.w3.org/2000/svg">
<path d="M52.5078 26.4816C52.5078 26.4816 52.5074 26.4821 52.5066 26.483L52.5078 26.4816ZM51.5644 25.9017C51.9319 26.2112 52.1589 26.4607 52.2908 26.6409C52.099 26.7554 51.7927 26.8965 51.3335 27.0381C50.1518 27.4023 48.364 27.648 46.0298 27.7095C41.3942 27.8317 35.0471 27.219 28.1142 25.8103C21.1812 24.4016 15.0983 22.4887 10.878 20.5671C8.75282 19.5996 7.20271 18.6757 6.25684 17.8791C5.88932 17.5696 5.66238 17.3201 5.5305 17.1399C5.72225 17.0254 6.02857 16.8843 6.48773 16.7427C7.66946 16.3785 9.45722 16.1328 11.7915 16.0713C16.4271 15.9492 22.7742 16.5618 29.7071 17.9705C36.64 19.3792 42.7229 21.2921 46.9433 23.2137C49.0684 24.1813 50.6186 25.1052 51.5644 25.9017ZM5.39285 16.9085C5.39286 16.9085 5.39304 16.909 5.39334 16.9101L5.39285 16.9085ZM5.31346 17.2992C5.31345 17.2992 5.31379 17.2988 5.31453 17.298L5.31346 17.2992ZM52.4279 26.8706C52.4283 26.8717 52.4284 26.8723 52.4284 26.8723L52.4279 26.8706Z" stroke="url(#paint0_linear_208_386)" stroke-width="4"/>
<circle cx="29.5002" cy="21.4998" r="11.5" transform="rotate(59.3189 29.5002 21.4998)" fill="url(#paint1_linear_208_386)"/>
<mask id="mask0_208_386" style="mask-type:alpha" maskUnits="userSpaceOnUse" x="2" y="16" width="54" height="19">
<rect x="3.43115" y="16.7133" width="53" height="7" transform="rotate(11.4854 3.43115 16.7133)" fill="#C4C4C4"/>
</mask>
<g mask="url(#mask0_208_386)">
<path d="M52.5078 26.4815C52.5078 26.4815 52.5074 26.482 52.5066 26.4829L52.5078 26.4815ZM51.5644 25.9016C51.9319 26.2111 52.1589 26.4606 52.2908 26.6408C52.099 26.7553 51.7927 26.8964 51.3335 27.038C50.1518 27.4022 48.364 27.6479 46.0298 27.7094C41.3942 27.8315 35.0471 27.2189 28.1142 25.8102C21.1812 24.4015 15.0983 22.4886 10.878 20.567C8.75282 19.5994 7.20271 18.6755 6.25684 17.879C5.88932 17.5695 5.66238 17.32 5.5305 17.1398C5.72225 17.0253 6.02857 16.8842 6.48773 16.7426C7.66946 16.3784 9.45722 16.1327 11.7915 16.0712C16.4271 15.949 22.7742 16.5617 29.7071 17.9704C36.64 19.3791 42.7229 21.292 46.9433 23.2135C49.0684 24.1811 50.6186 25.105 51.5644 25.9016ZM5.39285 16.9084C5.39286 16.9084 5.39304 16.9089 5.39334 16.9099L5.39285 16.9084ZM5.31346 17.2991C5.31345 17.2991 5.31379 17.2987 5.31453 17.2978L5.31346 17.2991ZM52.4279 26.8704C52.4283 26.8716 52.4284 26.8722 52.4284 26.8722L52.4279 26.8704Z" stroke="url(#paint2_linear_208_386)" stroke-width="4"/>
</g>
<defs>
<linearGradient id="paint0_linear_208_386" x1="30.1053" y1="16.0106" x2="27.7159" y2="27.7703" gradientUnits="userSpaceOnUse">
<stop stop-color="#232670"/>
<stop offset="1" stop-color="#C03664"/>
</linearGradient>
<linearGradient id="paint1_linear_208_386" x1="29.5002" y1="9.99979" x2="29.5002" y2="32.9998" gradientUnits="userSpaceOnUse">
<stop stop-color="#232670"/>
<stop offset="1" stop-color="#C23764"/>
</linearGradient>
<linearGradient id="paint2_linear_208_386" x1="30.1053" y1="16.0104" x2="27.7159" y2="27.7701" gradientUnits="userSpaceOnUse">
<stop stop-color="#232670"/>
<stop offset="1" stop-color="#C03664"/>
</linearGradient>
</defs>
</svg>
